# xmcd CD database file
#
# Track frame offsets:
#	150
#	30093
#	46016
#	60485
#	77112
#	99763
#	156453
#
# Disc length: 2953 seconds
#
# Revision: 1
# Processed by: cddbd v1.5.1PL2 Copyright (c) Steve Scherf et al.
# Submitted via: CDex 1.51
#
DISCID=410b8707
DTITLE=Various Artist - Prestige Profiles Collector's Edition Vol. 1
DYEAR=1900
DGENRE=Jazz
TTITLE0=Have You Met Miss Jones - Chet Baker
TTITLE1=No Moe - Sonny Rollins
TTITLE2=Alone Together - Kenny Dorham
TTITLE3=Hey Now - Red Garland
TTITLE4=Jambangle - Gil Evans
TTITLE5=Traneing In - John Coltrane
TTITLE6=Dig - Art Farmer/Donald Byrd
EXTD=
EXTT0=
EXTT1=
EXTT2=
EXTT3=
EXTT4=
EXTT5=
EXTT6=
PLAYORDER=
